<svg xmlns="http://www.w3.org/2000/svg" xmlns:xlink="http://www.w3.org/1999/xlink" width="476.19" height="134.197" viewBox="0 0 476.19 134.197"><defs><clipPath id="a"><rect width="476.19" height="134.197" fill="none"/></clipPath></defs><g clip-path="url(#a)"><path d="M111.377,72.076c4.114-4.879,11.315-5.652,17.374-2.865,6.039,2.778,9.407,8.619,10.094,15.105,1.841,17.376-21.02,29.377-38.212,17.063C82.972,89.968,85.16,64.632,101.677,53.073c9.338-6.514,22.22-6.21,31.708-1.677,11.156,5.33,18.44,15.048,19.273,28.57-4.827-8.446-9.757-16.244-16.639-20.3-9.825-5.8-20.546-5.48-27.452-1.908-15.24,7.885-17.607,29.823-2.642,39.2,8.758,5.488,20.758,5.059,26.029-6.31,3.742-8.074-1.911-16.905-8.548-18.125-4.746-.872-11.515,1.878-11.662,7.772.906-2.11,4.024-3.38,6.315-2.942a6.339,6.339,0,0,1,5.19,7.365,6.441,6.441,0,0,1-7.745,5.154c-8.279-1.583-8.7-12.366-4.128-17.791" transform="translate(-24.014 -13.073)" fill="#0094de" fill-rule="evenodd"/><path d="M180.376,49.29a7.032,7.032,0,0,1-2.048,9.919,7.5,7.5,0,0,1-10.138-2.325,7.031,7.031,0,0,1,2.048-9.919,7.5,7.5,0,0,1,10.138,2.326M92.491,31.947c31.69-29.358,89.125-7.672,100.949,28.107l-10.822,2.607,5.9,11.259c-7.54,4.208-23.61,3.224-27.2,2.959,4.7,4.821,31.175,5.432,36.132-2.47l-8.318-8.635L199.924,68.9a20.772,20.772,0,0,0-2.339-15.983c-12-21.812-29.175-35.939-54.031-39.436-11.31-1.592-39.518-1.283-51.062,18.468" transform="translate(-25.15 -3.505)" fill="#173885" fill-rule="evenodd"/><path d="M7.1,20.152a20.778,20.778,0,0,1,18.878,1.387c5.338,3.181,6.69-9.981,7.945-14.409a1.649,1.649,0,0,1,2.006-1.313c5.759.43,3.263,3.158.69,9.944-4.664,12.3-6.629,27.791,2.063,30.542,5.185,1.642,8.336-7.351,8.714-11.215.566-5.786,8.9-4.151,5.3,4.267-10.4,20.581-4.786,39.946,5.469,47.489-9.825-14.753-6.791-34.967,1.882-48.684,1.025-1.82,2.738-8.375-3.083-10.327-3.146-1.054-12.907-5.2-12.935,4.259-.017,5.854-6.042,11.775-6.486,2.38-.3-6.255,3.2-18.576,7.533-24.388S43.385,2.435,39.858.937c-2.266-.962-8.294-2.4-10.95,2.831-1.92,3.78-1.268,10.5-4.876,9.191C12.856,8.912,3.1,15.582,0,17.579c.4,5.7,2.8,9.209,5.2,10.236,14.12,6.055,11.351,13.476,12.962,28.337C20.1,74.049,39.4,101.144,60.4,104.764c2.837,1.129,10.659,1.181,13.084-.713C56.475,102.035,27,84.18,23.059,47.91,21.283,31.51,21.808,26.1,7.1,20.152" transform="translate(0 0)" fill="#173885" fill-rule="evenodd"/><path d="M148.424,117.181c-8.362,2.821-14.11,10.382-21.785,14.447a151.559,151.559,0,0,1-21.957,9.312c-5.459,1.739-4.367,10.087,2.015,9.9a70.938,70.938,0,0,0,16.723-2.271c7.9-2.316,14.524-7.606,15.419-9.488-11.02,4.371-17.1,6.08-27.251,6.838-4.143.309-2.433-1.682,1.544-3.169a95.448,95.448,0,0,0,18.241-8.324c6.016-3.5,11.977-9.077,17.848-11.629,10.067-4.376,21.365,3.565,25.411,12.337-14.985-6.075-18.424-1.52-30.566,9.059-26.865,23.387-60.817,15.766-74.95,5.4.577,3.05,6.5,8.447,9.378,9.606,18.2,11.987,50.573,5.879,63.83-5.661,11-9.585,13.809-16.854,28.428-11.4,2.481.925,7.1-.387,11.059-4.117-3.98-14.84-18.121-25.979-33.385-20.83" transform="translate(-18.793 -31.517)" fill="#173885" fill-rule="evenodd"/><path d="M294.5,73.713V59.806H282.22V73.713h-5.478V42.844h5.478V54.938H294.5V42.844h5.415V73.713Z" transform="translate(-75.252 -11.65)" fill="#173885"/><path d="M336.416,66.985H320.3a5.724,5.724,0,0,0,1.854,4.193,6.722,6.722,0,0,0,4.594,1.5,7.421,7.421,0,0,0,5.477-1.875l2.045,4.025q-2.782,2.254-8.3,2.254a10.989,10.989,0,0,1-8.165-3.024q-3-3.023-3-8.438a11.708,11.708,0,0,1,3.3-8.639,11.566,11.566,0,0,1,15.793-.379,10.026,10.026,0,0,1,2.971,7.459,14.774,14.774,0,0,1-.442,2.929m-15.93-3.961H331.57q-.548-4.952-5.48-4.952-4.508,0-5.6,4.952" transform="translate(-85.601 -14.594)" fill="#173885"/><path d="M362.892,74.4a5.093,5.093,0,0,1-2.5,1.928,9.509,9.509,0,0,1-3.719.748,8.414,8.414,0,0,1-5.731-1.822,6.5,6.5,0,0,1-2.086-5.173A7.245,7.245,0,0,1,351.8,63.95q2.939-2.213,8.355-2.212a9.2,9.2,0,0,1,2.191.316q0-3.983-5.035-3.983a11.17,11.17,0,0,0-4.973.99L351.2,54.974a14.8,14.8,0,0,1,6.468-1.306q5.162,0,7.564,2.349t2.4,8.9v4.826q0,4.509,1.811,5.667a2.831,2.831,0,0,1-1.454,1.4,5.861,5.861,0,0,1-1.833.264,2.925,2.925,0,0,1-2.044-.843,4.292,4.292,0,0,1-1.222-1.833m-.505-8.365a11.247,11.247,0,0,0-2.023-.274q-6.238,0-6.237,4.087,0,3.035,3.519,3.035,4.741,0,4.741-4.741Z" transform="translate(-94.863 -14.594)" fill="#173885"/><path d="M383.7,42.228l5.268-1.265V66.332q0,4.172,2.486,4.973a4.326,4.326,0,0,1-4.171,2.318q-3.582,0-3.582-4.973Z" transform="translate(-104.338 -11.139)" fill="#173885"/><path d="M400.063,56.043H397.45V51.808h2.613V47.214l5.267-1.938v6.532h6.2v4.235h-6.2v9.882a5.827,5.827,0,0,0,.759,3.423,3.134,3.134,0,0,0,2.655,1,6.531,6.531,0,0,0,3.54-1.032v4.846a16.772,16.772,0,0,1-5.226.633,6.811,6.811,0,0,1-5.183-1.907,7.57,7.57,0,0,1-1.811-5.426Z" transform="translate(-108.076 -12.312)" fill="#173885"/><path d="M438.04,73.2V59.294a4.45,4.45,0,0,0-1.306-3.35,4.7,4.7,0,0,0-3.413-1.264,5.577,5.577,0,0,0-2.634.706A4.857,4.857,0,0,0,428.79,57V73.2h-5.352V42.227l5.352-1.264v11.1a8.063,8.063,0,0,1,5.625-1.854,8.867,8.867,0,0,1,6.575,2.349q2.338,2.35,2.339,6.732V73.2Z" transform="translate(-115.143 -11.139)" fill="#173885"/><path d="M467.535,80.437a7.243,7.243,0,0,1-3.613,3.74,13.467,13.467,0,0,1-6.458,1.485V81.006q6.089,0,6.089-3.055a18.8,18.8,0,0,0-1.685-6.194l-7.059-17.51h5.458l6.152,15.592,5.541-15.592h5.457Z" transform="translate(-123.673 -14.751)" fill="#173885"/><path d="M525.9,73.594l-8.239-12.747q-1.243-.021-3.477-.148V73.594H508.5V42.726q.463,0,3.56-.158t4.995-.158q11.757,0,11.757,9.1a8.352,8.352,0,0,1-1.623,4.994,8.765,8.765,0,0,1-4.088,3.182l9.124,13.906ZM514.187,47.488v8.575q1.518.127,2.318.127a9.99,9.99,0,0,0,5.025-.969q1.591-.97,1.591-3.772a3.291,3.291,0,0,0-1.707-3.181,12.008,12.008,0,0,0-5.373-.906,14.332,14.332,0,0,0-1.854.127" transform="translate(-138.273 -11.532)" fill="#173885"/><path d="M563.861,66.985H547.742a5.722,5.722,0,0,0,1.854,4.193,6.72,6.72,0,0,0,4.593,1.5,7.424,7.424,0,0,0,5.478-1.875l2.044,4.025q-2.782,2.254-8.3,2.254a10.987,10.987,0,0,1-8.165-3.024q-3-3.023-3-8.438a11.705,11.705,0,0,1,3.3-8.639,11.565,11.565,0,0,1,15.792-.379,10.027,10.027,0,0,1,2.971,7.459,14.728,14.728,0,0,1-.443,2.929m-15.929-3.961h11.083q-.548-4.952-5.479-4.952-4.509,0-5.6,4.952" transform="translate(-147.449 -14.594)" fill="#173885"/><path d="M597.924,66.985H581.805a5.722,5.722,0,0,0,1.854,4.193,6.72,6.72,0,0,0,4.593,1.5,7.424,7.424,0,0,0,5.478-1.875l2.044,4.025q-2.782,2.254-8.3,2.254a10.987,10.987,0,0,1-8.165-3.024q-3-3.023-3-8.438a11.7,11.7,0,0,1,3.3-8.639A11.565,11.565,0,0,1,595.4,56.6a10.027,10.027,0,0,1,2.971,7.459,14.725,14.725,0,0,1-.443,2.929M582,63.023h11.083q-.548-4.952-5.479-4.952-4.509,0-5.6,4.952" transform="translate(-156.711 -14.594)" fill="#173885"/><path d="M624.186,46.367a9.271,9.271,0,0,0-2.655-.569,3.162,3.162,0,0,0-2.539,1.285,4.854,4.854,0,0,0-1.043,3.161c0,.183.006.365.02.548h4.678v4.34h-4.593V73.358h-5.268V55.132H609.5v-4.34h3.308a10.311,10.311,0,0,1,2.454-6.7,7.575,7.575,0,0,1,5.911-2.55,16.189,16.189,0,0,1,4.572.821Z" transform="translate(-165.737 -11.296)" fill="#173885"/><path d="M632.359,75.2l1.875-4.193a8.346,8.346,0,0,0,5.331,1.876q3.076,0,3.076-2.192a2.688,2.688,0,0,0-.927-2.107,14.183,14.183,0,0,0-3.6-1.939q-5.836-2.422-5.836-6.784a5.327,5.327,0,0,1,2.233-4.561,9.427,9.427,0,0,1,5.71-1.633,14.355,14.355,0,0,1,6.617,1.58l-1.517,4.087a7.173,7.173,0,0,0-4.8-1.474q-2.76,0-2.76,2.191a1.97,1.97,0,0,0,.906,1.56,18.729,18.729,0,0,0,3.878,1.865,9.944,9.944,0,0,1,4.277,2.834,6.318,6.318,0,0,1,1.305,4.024,5.906,5.906,0,0,1-2.328,4.941,10.1,10.1,0,0,1-6.331,1.8,14.258,14.258,0,0,1-3.614-.369,17.684,17.684,0,0,1-3.487-1.506" transform="translate(-171.93 -14.594)" fill="#173885"/><path d="M286.054,107.378a5.393,5.393,0,0,0-1.712-.406q-2.625,0-3.351,4.192h3.6l-.232,1.9h-3.641l-2.451,14.65a5.372,5.372,0,0,1-1.886,3.343,7.049,7.049,0,0,1-3.728,1.56l-.247-1.7a3.465,3.465,0,0,0,1.785-1.175,4.161,4.161,0,0,0,1.1-2.031l2.568-14.65h-2.191l.319-1.9h2.133q1.277-6.368,6.4-6.368a4.437,4.437,0,0,1,2.06.436Z" transform="translate(-74.073 -28.496)" fill="#0094de"/><path d="M291.072,123.254a10.9,10.9,0,0,1,2.436-7.137,7.666,7.666,0,0,1,6.194-2.973,5.773,5.773,0,0,1,4.323,1.53,5.963,5.963,0,0,1,1.493,4.344,13.328,13.328,0,0,1-.892,4.641,8.984,8.984,0,0,1-2.915,4,7.6,7.6,0,0,1-4.852,1.6,5.64,5.64,0,0,1-4.294-1.573,6.183,6.183,0,0,1-1.493-4.432m2.9-.174q0,3.932,3.292,3.931a4.388,4.388,0,0,0,3.9-2.379,10.39,10.39,0,0,0,1.443-5.5q0-3.743-3.292-3.742a4.167,4.167,0,0,0-2.938,1.19,6.792,6.792,0,0,0-1.835,3.046,11.89,11.89,0,0,0-.566,3.452" transform="translate(-79.149 -30.767)" fill="#0094de"/><path d="M324.1,116.161a3.154,3.154,0,0,0-2.031-.7,3.929,3.929,0,0,0-2.8,1.356,6.011,6.011,0,0,0-1.668,3.242l-1.581,8.907h-2.756l2.741-15.535h2.756l-.435,2.48a5.956,5.956,0,0,1,4.975-2.77,9.5,9.5,0,0,1,1.581.2Z" transform="translate(-85.184 -30.766)" fill="#0094de"/><path d="M351.9,126.7l1.726-9.762a6.187,6.187,0,0,0,.1-1.059q0-2.683-2.612-2.684a4.526,4.526,0,0,0-2.111.588,6.157,6.157,0,0,0-1.791,1.371L345.168,126.7h-2.814l3.786-21.9h2.741l-1.276,8.08a5.342,5.342,0,0,1,2.038-1.429,6.6,6.6,0,0,1,2.633-.572,4.246,4.246,0,0,1,3.2,1.174,4.555,4.555,0,0,1,1.139,3.307,9.317,9.317,0,0,1-.146,1.581l-1.726,9.762Z" transform="translate(-93.094 -28.496)" fill="#0094de"/><path d="M368.607,121.63a7.225,7.225,0,0,0-.131,1.335,3.886,3.886,0,0,0,1.074,2.944,4.159,4.159,0,0,0,3,1.03A5.877,5.877,0,0,0,376,125.677l-.29,2.814a13.29,13.29,0,0,1-4.1.769q-6.006,0-6.005-6.731a9.431,9.431,0,0,1,2.523-6.673,8.311,8.311,0,0,1,6.353-2.711,6.208,6.208,0,0,1,3.685.986,3.255,3.255,0,0,1,1.378,2.814,4.6,4.6,0,0,1-2.146,4,9.12,9.12,0,0,1-5.265,1.466,7.268,7.268,0,0,1-3.525-.783m.478-2a6.32,6.32,0,0,0,2.6.493,8.129,8.129,0,0,0,3.7-.732,2.309,2.309,0,0,0,1.436-2.14q0-1.783-2.466-1.784-3.757,0-5.265,4.163" transform="translate(-99.416 -30.767)" fill="#0094de"/><path d="M401.043,114.406l-1.9,9.037a6.6,6.6,0,0,0-.116,1.335,12.018,12.018,0,0,0,.711,4.192h-2.815a8,8,0,0,1-.493-1.566,4.769,4.769,0,0,1-2.031,1.341,7.953,7.953,0,0,1-2.858.515,4.687,4.687,0,0,1-3.576-1.356,5.453,5.453,0,0,1-1.284-3.894,12.138,12.138,0,0,1,2.516-7.565,7.8,7.8,0,0,1,6.477-3.3q3.742,0,5.367,1.261M398,116.017q-.392-.624-2.64-.623a4.949,4.949,0,0,0-4.033,2.436,10.217,10.217,0,0,0-1.741,6.092q0,3.091,2.756,3.091a3.572,3.572,0,0,0,2.7-1.487,8.5,8.5,0,0,0,1.755-3.808Z" transform="translate(-105.148 -30.767)" fill="#0094de"/><path d="M414.768,124.959l-.319,2.031q-4.657,0-4.656-3.452a31.747,31.747,0,0,1,.725-4.657L413.3,104.8h2.872l-2.655,13.229a37.57,37.57,0,0,0-.827,5.164q0,1.769,2.074,1.77" transform="translate(-111.432 -28.496)" fill="#0094de"/><path d="M425.607,114.061h-1.8l.465-2.175h1.8l.638-3.249,3.147-1.19-1.03,4.439h4.265l-.464,2.175h-4.265l-1.624,7.717a7.281,7.281,0,0,0-.189,1.393,1.956,1.956,0,0,0,2.205,2.219,5.808,5.808,0,0,0,2.306-.537l-.1,2.422a12.2,12.2,0,0,1-3.846.435,3.29,3.29,0,0,1-2.574-1.022,4.04,4.04,0,0,1-.92-2.807,4.832,4.832,0,0,1,.129-1Z" transform="translate(-115.192 -29.217)" fill="#0094de"/><path d="M448.185,126.7l1.726-9.762a6.184,6.184,0,0,0,.1-1.059q0-2.683-2.612-2.684a4.526,4.526,0,0,0-2.111.588,6.158,6.158,0,0,0-1.791,1.371L441.455,126.7h-2.814l3.786-21.9h2.741l-1.276,8.08a5.342,5.342,0,0,1,2.038-1.429,6.6,6.6,0,0,1,2.633-.572,4.246,4.246,0,0,1,3.2,1.174,4.555,4.555,0,0,1,1.139,3.307,9.317,9.317,0,0,1-.146,1.581l-1.726,9.762Z" transform="translate(-119.277 -28.496)" fill="#0094de"/><path d="M460.435,135.17V132.4a6.783,6.783,0,0,0,3.83-.813,4.473,4.473,0,0,0,1.624-2.437q-2.044,0-2.712-4.032l-1.944-11.575h3l1.712,11.27q.247,1.669,1.19,1.668l5.6-12.938h3.133l-7.789,17.392a6.99,6.99,0,0,1-2.625,3.22,9.744,9.744,0,0,1-5.019,1.016" transform="translate(-125.203 -30.875)" fill="#0094de"/><path d="M495.909,128.213l-1.218,6.948h-2.757L494.98,118.1a12.221,12.221,0,0,0,.2-2.191,10.462,10.462,0,0,0-.218-2.146l2.77-.522a17.569,17.569,0,0,1,.262,1.987,5.214,5.214,0,0,1,1.958-1.415,5.845,5.845,0,0,1,2.379-.572,5.923,5.923,0,0,1,4.344,1.436A5.854,5.854,0,0,1,508.123,119a11.238,11.238,0,0,1-2.445,7.383,7.9,7.9,0,0,1-6.419,2.973,6.918,6.918,0,0,1-1.965-.333,2.339,2.339,0,0,1-1.385-.813m.406-2.277a2.009,2.009,0,0,0,1.059.783,4.044,4.044,0,0,0,1.495.32,5.652,5.652,0,0,0,4.678-2.053,8.722,8.722,0,0,0,1.645-5.606,3.856,3.856,0,0,0-.964-2.864,3.964,3.964,0,0,0-2.893-.95,4.288,4.288,0,0,0-1.951.587,4.553,4.553,0,0,0-1.574,1.226Z" transform="translate(-133.768 -30.794)" fill="#0094de"/><path d="M520.04,121.63a7.225,7.225,0,0,0-.131,1.335,3.886,3.886,0,0,0,1.074,2.944,4.159,4.159,0,0,0,3,1.03,5.877,5.877,0,0,0,3.452-1.262l-.291,2.814a13.29,13.29,0,0,1-4.1.769q-6.005,0-6.005-6.731a9.431,9.431,0,0,1,2.523-6.673,8.311,8.311,0,0,1,6.353-2.711,6.208,6.208,0,0,1,3.685.986,3.255,3.255,0,0,1,1.378,2.814,4.6,4.6,0,0,1-2.146,4,9.12,9.12,0,0,1-5.265,1.466,7.268,7.268,0,0,1-3.525-.783m.478-2a6.319,6.319,0,0,0,2.6.493,8.128,8.128,0,0,0,3.7-.732,2.309,2.309,0,0,0,1.437-2.14q0-1.783-2.466-1.784-3.757,0-5.265,4.163" transform="translate(-140.594 -30.767)" fill="#0094de"/><path d="M538.334,123.254a10.9,10.9,0,0,1,2.437-7.137,7.666,7.666,0,0,1,6.194-2.973,5.772,5.772,0,0,1,4.323,1.53,5.96,5.96,0,0,1,1.494,4.344,13.346,13.346,0,0,1-.892,4.641,8.98,8.98,0,0,1-2.916,4,7.6,7.6,0,0,1-4.852,1.6,5.638,5.638,0,0,1-4.294-1.573,6.183,6.183,0,0,1-1.494-4.432m2.9-.174q0,3.932,3.292,3.931a4.386,4.386,0,0,0,3.9-2.379,10.39,10.39,0,0,0,1.443-5.5q0-3.743-3.292-3.742a4.166,4.166,0,0,0-2.937,1.19,6.8,6.8,0,0,0-1.836,3.046,11.915,11.915,0,0,0-.566,3.452" transform="translate(-146.386 -30.767)" fill="#0094de"/><path d="M562.451,128.213l-1.218,6.948h-2.757l3.046-17.058a12.224,12.224,0,0,0,.2-2.191,10.46,10.46,0,0,0-.218-2.146l2.77-.522a17.556,17.556,0,0,1,.262,1.987,5.214,5.214,0,0,1,1.958-1.415,5.845,5.845,0,0,1,2.379-.572,5.923,5.923,0,0,1,4.344,1.436A5.855,5.855,0,0,1,574.665,119a11.238,11.238,0,0,1-2.445,7.383,7.9,7.9,0,0,1-6.419,2.973,6.918,6.918,0,0,1-1.965-.333,2.339,2.339,0,0,1-1.386-.813m.406-2.277a2.009,2.009,0,0,0,1.059.783,4.044,4.044,0,0,0,1.495.32,5.652,5.652,0,0,0,4.678-2.053,8.722,8.722,0,0,0,1.645-5.606,3.856,3.856,0,0,0-.964-2.864,3.964,3.964,0,0,0-2.893-.95,4.288,4.288,0,0,0-1.951.587,4.554,4.554,0,0,0-1.574,1.226Z" transform="translate(-151.863 -30.794)" fill="#0094de"/><path d="M589.392,124.959l-.319,2.031q-4.657,0-4.656-3.452a31.742,31.742,0,0,1,.725-4.657l2.785-14.085H590.8l-2.655,13.229a37.57,37.57,0,0,0-.827,5.164q0,1.769,2.074,1.77" transform="translate(-158.917 -28.496)" fill="#0094de"/><path d="M599.652,121.63a7.22,7.22,0,0,0-.131,1.335,3.886,3.886,0,0,0,1.074,2.944,4.159,4.159,0,0,0,3,1.03,5.877,5.877,0,0,0,3.452-1.262l-.29,2.814a13.29,13.29,0,0,1-4.1.769q-6.005,0-6.005-6.731a9.431,9.431,0,0,1,2.523-6.673,8.311,8.311,0,0,1,6.353-2.711,6.208,6.208,0,0,1,3.685.986,3.255,3.255,0,0,1,1.378,2.814,4.6,4.6,0,0,1-2.146,4,9.12,9.12,0,0,1-5.265,1.466,7.267,7.267,0,0,1-3.525-.783m.478-2a6.32,6.32,0,0,0,2.6.493,8.128,8.128,0,0,0,3.7-.732,2.309,2.309,0,0,0,1.437-2.14q0-1.783-2.466-1.784-3.757,0-5.266,4.163" transform="translate(-162.243 -30.767)" fill="#0094de"/></g></svg>